<svg xmlns="http://www.w3.org/2000/svg" width="500" height="500" viewBox="0 0 500 500"><g transform="translate(204.03373724432367,308.3656516962008)translate(26.183990478515625,31.666669130325314)rotate(0)translate(-26.183990478515625,-31.666669130325314)" opacity="1"><path transform="translate(6,38.480000000000004)rotate(0)" d="M24.43 0L21.22-9.07L8.35-9.07L5.14 0L0.34 0L12.38-33.60L17.18-33.60L29.23 0L24.43 0ZM9.79-13.20L19.78-13.20L14.78-27.22L9.79-13.20Z" fill="#3B3B3B"/></g><g transform="translate(133.95441552638067,99.66145084089383)translate(115.93482023160132,91.963334845368)rotate(0)translate(-115.93482023160132,-91.963334845368) scale(0.8724939905672617,0.8724939905672617)" opacity="1"><defs class="defs"><linearGradient id="linearGradient879ffe0abea98280c14014529b746349" class="linearGradient1" gradientTransform="translate(0.5,0.5) rotate(270) translate(-0.5,-0.5)" x1="50%" y1="0%" x2="50%" y2="100%"><stop id="stop1" offset="0%" class="linearGradientColor1" stop-color="#56ebff"/><stop id="stop2" offset="100%" class="linearGradientColor2" stop-color="#00398c"/></linearGradient></defs><path fill="#D42A2A" d="M258.92,149.44c-9.36-18.73-27.22-35.31-45.56-48.6L202.52,44.9c-1.45-7.46-8.62-12.29-15.94-10.73&#10;&#9;l-5.84,1.24c-1.01-10.6-6.3-20.39-14.69-27c-8.71-6.88-19.99-9.74-30.92-7.83c-15.67,2.72-28.03,14.51-31.48,30.04l-4.92,22.16&#10;&#9;C54.46,46.19,17.01,52.81,0,71.25c17.34-11.26,45.26-15.6,77.8-12.42c2.1,0.2,4.19,0.44,6.28,0.71c-0.85,1.17-1.52,2.48-1.97,3.9&#10;&#9;l-30.96,97.97c16.45,11.11,36.01,21.12,57.72,29.04c15.06,5.49,29.13,10.19,42.24,13.91c14.75,4.2,30,6.3,45.34,6.51l21.77,0.29&#10;&#9;c8.53,0.11,15-7.78,13.36-16.29l-15.14-78.14c12.8,8.36,24.12,18.87,33.11,31.27c17.08,23.57,14.05,36.83,12.58,40.58&#10;&#9;C271.86,167.58,258.92,149.44,258.92,149.44z M178.42,97.12c0,5.19-4.2,9.39-9.39,9.39s-9.39-4.2-9.39-9.39s4.2-9.39,9.39-9.39&#10;&#9;S178.42,91.93,178.42,97.12z M111.51,32.37c2.74-12.33,12.55-21.7,25-23.86c8.68-1.51,17.63,0.75,24.55,6.21&#10;&#9;c6.91,5.45,11.19,13.6,11.75,22.38l-65.44,13.93L111.51,32.37z M112.68,90.41c5.18,0,9.39,4.2,9.39,9.39s-4.21,9.39-9.39,9.39&#10;&#9;c-5.19,0-9.39-4.2-9.39-9.39S107.49,90.41,112.68,90.41z M183.96,132.55c-12.92,9.53-31.43,19.56-52.13,19.56&#10;&#9;c-3.86,0-7.79-0.35-11.79-1.12c-12.66-2.43-20.9-8.08-23.77-10.31c-0.62-0.48-0.7-1.38-0.18-1.96l0.01-0.01&#10;&#9;c0.47-0.51,1.25-0.59,1.81-0.17c2.65,2.04,10.68,7.55,22.79,9.85c13.59,2.57,35.26,1.5,61.66-17.99c0.59-0.44,1.42-0.33,1.87,0.26&#10;&#9;c0.18,0.24,0.27,0.53,0.27,0.81C184.5,131.89,184.32,132.29,183.96,132.55z" class="color c1"/><path fill="#D42A2A" d="M262.128,188.576c-0.173,0.373-0.336,0.744-0.523,1.118C261.605,189.695,261.837,189.319,262.128,188.576z" class="color c1"/></g><g transform="translate(126.33333333333344,172.37006864380177)translate(115.93482023160132,60.60229239379164)rotate(0)translate(-115.93482023160132,-60.60229239379164) scale(0.8786335647227437,0.8786335647227437)" opacity="1"><defs class="defs"><linearGradient id="linearGradiente27133c4af6ebac57b4d36b859c3c629" class="linearGradient1" gradientTransform="translate(0.5,0.5) rotate(270) translate(-0.5,-0.5)" x1="50%" y1="0%" x2="50%" y2="100%"><stop id="stop1" offset="0%" class="linearGradientColor1" stop-color="#59D559"/><stop id="stop2" offset="100%" class="linearGradientColor2" stop-color="#00924C"/></linearGradient></defs><path fill="#3B3B3B" d="M181.867,128.239c-19.857-3.891-42.451-10.895-67.836-20.152c-21.709-7.916-41.271-17.925-57.72-29.034&#10;&#9;C19.629,54.365-1.65,24.311,3.287,0C2.858,0.939,2.456,1.905,2.107,2.844c-9.204,25.09,12.424,57.666,51.709,84.097l-6.896,21.789&#10;&#9;c-2.764,8.721,3.569,17.683,12.612,17.818l88.632,1.208c55.305,15.403,96.79,14.115,113.239-9.687c0.966-1.395,0,0,2.495-4.186&#10;&#9;C245.007,132.13,217.851,135.269,181.867,128.239z" class="color c1"/></g><g transform="translate(235.33681215882203,308.3584986203783)translate(25.63198852539062,31.666669130325314)rotate(0)translate(-25.63198852539062,-31.666669130325314)" opacity="1"><path transform="translate(6,38.480000000000004)rotate(0)" d="M0.19 0L11.62-16.94L0.38-33.60L5.66-33.60L14.26-20.88L22.80-33.60L28.08-33.60L16.90-16.94L28.27 0L22.99 0L14.26-13.01L5.47 0L0.19 0Z" fill="#EE4949"/></g><g transform="translate(261.61450095610286,308.3513455445556)translate(31.535987854003903,31.666669130325314)rotate(0)translate(-31.535987854003903,-31.666669130325314)" opacity="1"><path transform="translate(6,38.480000000000004)rotate(0)" d="M3.84 0L3.84-33.60L8.40-33.60L8.40 0L3.84 0ZM25.68 0.67L25.68 0.67Q22.70 0.67 19.63 0.02L19.63 0.02L19.63 0.02Q16.56-0.62 14.69-1.49L14.69-1.49L15.31-6.34L15.31-6.34Q17.71-5.18 20.74-4.32L20.74-4.32L20.74-4.32Q23.76-3.46 26.74-3.46L26.74-3.46L26.74-3.46Q30.10-3.46 31.94-4.68L31.94-4.68L31.94-4.68Q33.79-5.90 33.79-8.35L33.79-8.35L33.79-8.35Q33.79-10.18 32.86-11.40L32.86-11.40L32.86-11.40Q31.92-12.62 30.12-13.46L30.12-13.46L30.12-13.46Q28.32-14.30 25.10-15.26L25.10-15.26L25.10-15.26Q21.84-16.22 19.68-17.33L19.68-17.33L19.68-17.33Q17.52-18.43 16.20-20.35L16.20-20.35L16.20-20.35Q14.88-22.27 14.88-25.20L14.88-25.20L14.88-25.20Q14.88-29.28 18.02-31.78L18.02-31.78L18.02-31.78Q21.17-34.27 26.88-34.27L26.88-34.27L26.88-34.27Q29.95-34.27 32.71-33.60L32.71-33.60L32.71-33.60Q35.47-32.93 37.54-31.97L37.54-31.97L37.06-27.12L37.06-27.12Q34.37-28.70 31.87-29.42L31.87-29.42L31.87-29.42Q29.38-30.14 26.69-30.14L26.69-30.14L26.69-30.14Q23.57-30.14 21.72-28.99L21.72-28.99L21.72-28.99Q19.87-27.84 19.87-25.44L19.87-25.44L19.87-25.44Q19.87-23.81 20.71-22.75L20.71-22.75L20.71-22.75Q21.55-21.70 23.14-20.95L23.14-20.95L23.14-20.95Q24.72-20.21 27.55-19.34L27.55-19.34L27.55-19.34Q33.22-17.62 36-15.24L36-15.24L36-15.24Q38.78-12.86 38.78-8.69L38.78-8.69L38.78-8.69Q38.78-4.27 35.47-1.80L35.47-1.80L35.47-1.80Q32.16 0.67 25.68 0.67L25.68 0.67Z" fill="#3B3B3B"/></g></svg>